<svg width="16" height="17" viewBox="0 0 16 17" fill="none" xmlns="http://www.w3.org/2000/svg">
<g clip-path="url(#clip0_87_2430)">
<rect width="16" height="16" transform="translate(-0.00402832 0.5)" fill="white" fill-opacity="0.01"/>
<path fill-rule="evenodd" clip-rule="evenodd" d="M3.99597 8.49999C3.99597 8.36738 4.04865 8.24021 4.14242 8.14644C4.23619 8.05267 4.36336 7.99999 4.49597 7.99999H10.289L8.14197 5.85399C8.04808 5.7601 7.99534 5.63277 7.99534 5.49999C7.99534 5.36722 8.04808 5.23988 8.14197 5.14599C8.23586 5.0521 8.3632 4.99936 8.49597 4.99936C8.62875 4.99936 8.75608 5.0521 8.84997 5.14599L11.85 8.14599C11.8965 8.19244 11.9335 8.24761 11.9587 8.30836C11.9839 8.3691 11.9969 8.43422 11.9969 8.49999C11.9969 8.56576 11.9839 8.63088 11.9587 8.69162C11.9335 8.75237 11.8965 8.80755 11.85 8.85399L8.84997 11.854C8.75608 11.9479 8.62875 12.0006 8.49597 12.0006C8.3632 12.0006 8.23586 11.9479 8.14197 11.854C8.04808 11.7601 7.99534 11.6328 7.99534 11.5C7.99534 11.3672 8.04808 11.2399 8.14197 11.146L10.289 8.99999H4.49597C4.36336 8.99999 4.23619 8.94731 4.14242 8.85354C4.04865 8.75978 3.99597 8.6326 3.99597 8.49999Z" fill="#CED4DA"/>
</g>
<defs>
<clipPath id="clip0_87_2430">
<rect width="16" height="16" fill="white" transform="translate(-0.00402832 0.5)"/>
</clipPath>
</defs>
</svg>
