<svg width="18" height="19" viewBox="0 0 18 19" fill="none" xmlns="http://www.w3.org/2000/svg">
<path d="M2.81451 9.5C2.81451 6.08274 5.58475 3.3125 9.00201 3.3125C10.13 3.3125 11.1858 3.6138 12.0954 4.13993C12.3643 4.29549 12.7084 4.2036 12.8639 3.93469C13.0195 3.66578 12.9276 3.32168 12.6587 3.16613C11.5825 2.54361 10.333 2.1875 9.00201 2.1875C4.96343 2.1875 1.68951 5.46142 1.68951 9.5C1.68951 13.5386 4.96343 16.8125 9.00201 16.8125C13.0406 16.8125 16.3145 13.5386 16.3145 9.5C16.3145 9.18934 16.0627 8.9375 15.752 8.9375C15.4414 8.9375 15.1895 9.18934 15.1895 9.5C15.1895 12.9173 12.4193 15.6875 9.00201 15.6875C5.58475 15.6875 2.81451 12.9173 2.81451 9.5Z" fill="#12B76A"/>
<path d="M17.2748 4.27275C17.4944 4.05308 17.4944 3.69692 17.2748 3.47725C17.0551 3.25758 16.6989 3.25758 16.4793 3.47725L9.00201 10.9545L6.02476 7.97725C5.80509 7.75758 5.44894 7.75758 5.22927 7.97725C5.0096 8.19692 5.0096 8.55308 5.22927 8.77275L8.60427 12.1477C8.82394 12.3674 9.18009 12.3674 9.39976 12.1477L17.2748 4.27275Z" fill="#12B76A"/>
</svg>
