<svg width="18" height="19" viewBox="0 0 18 19" fill="none" xmlns="http://www.w3.org/2000/svg">
<path fill-rule="evenodd" clip-rule="evenodd" d="M4.00201 2.5C4.00201 1.39543 4.89744 0.5 6.00201 0.5H14.002C15.1066 0.5 16.002 1.39543 16.002 2.5V10.5C16.002 11.6046 15.1066 12.5 14.002 12.5H6.00201C4.89744 12.5 4.00201 11.6046 4.00201 10.5V2.5ZM6.00201 1.5C5.44973 1.5 5.00201 1.94772 5.00201 2.5V10.5C5.00201 11.0523 5.44973 11.5 6.00201 11.5H14.002C14.5543 11.5 15.002 11.0523 15.002 10.5V2.5C15.002 1.94772 14.5543 1.5 14.002 1.5H6.00201ZM2.00201 5.5C1.44973 5.5 1.00201 5.94772 1.00201 6.5V14.5C1.00201 15.0523 1.44973 15.5 2.00201 15.5H10.002C10.5543 15.5 11.002 15.0523 11.002 14.5V13.5H12.002V14.5C12.002 15.6046 11.1066 16.5 10.002 16.5H2.00201C0.897444 16.5 0.00201416 15.6046 0.00201416 14.5V6.5C0.00201416 5.39543 0.897444 4.5 2.00201 4.5H3.00201V5.5H2.00201Z" fill="#2C2C30"/>
</svg>
