<svg width="16" height="17" viewBox="0 0 16 17" fill="none" xmlns="http://www.w3.org/2000/svg">
<g clip-path="url(#clip0_87_6063)">
<path d="M0.5 10.4C0.632608 10.4 0.759785 10.4527 0.853553 10.5464C0.947322 10.6402 1 10.7674 1 10.9V13.4C1 13.6652 1.10536 13.9196 1.29289 14.1071C1.48043 14.2946 1.73478 14.4 2 14.4H14C14.2652 14.4 14.5196 14.2946 14.7071 14.1071C14.8946 13.9196 15 13.6652 15 13.4V10.9C15 10.7674 15.0527 10.6402 15.1464 10.5464C15.2402 10.4527 15.3674 10.4 15.5 10.4C15.6326 10.4 15.7598 10.4527 15.8536 10.5464C15.9473 10.6402 16 10.7674 16 10.9V13.4C16 13.9304 15.7893 14.4391 15.4142 14.8142C15.0391 15.1893 14.5304 15.4 14 15.4H2C1.46957 15.4 0.960859 15.1893 0.585786 14.8142C0.210714 14.4391 0 13.9304 0 13.4V10.9C0 10.7674 0.0526784 10.6402 0.146447 10.5464C0.240215 10.4527 0.367392 10.4 0.5 10.4Z" fill="#6C757D"/>
<path d="M7.646 12.354C7.69245 12.4006 7.74762 12.4375 7.80837 12.4627C7.86911 12.4879 7.93423 12.5009 8 12.5009C8.06577 12.5009 8.13089 12.4879 8.19163 12.4627C8.25238 12.4375 8.30755 12.4006 8.354 12.354L11.354 9.354C11.4479 9.26011 11.5006 9.13278 11.5006 9C11.5006 8.86722 11.4479 8.73989 11.354 8.646C11.2601 8.55211 11.1328 8.49937 11 8.49937C10.8672 8.49937 10.7399 8.55211 10.646 8.646L8.5 10.793V2C8.5 1.86739 8.44732 1.74021 8.35355 1.64645C8.25979 1.55268 8.13261 1.5 8 1.5C7.86739 1.5 7.74021 1.55268 7.64645 1.64645C7.55268 1.74021 7.5 1.86739 7.5 2V10.793L5.354 8.646C5.26011 8.55211 5.13278 8.49937 5 8.49937C4.86722 8.49937 4.73989 8.55211 4.646 8.646C4.55211 8.73989 4.49937 8.86722 4.49937 9C4.49937 9.13278 4.55211 9.26011 4.646 9.354L7.646 12.354Z" fill="#6C757D"/>
</g>
<defs>
<clipPath id="clip0_87_6063">
<rect width="16" height="16" fill="white" transform="translate(0 0.5)"/>
</clipPath>
</defs>
</svg>
