<svg width="304" height="200" viewBox="0 0 304 200" fill="none" xmlns="http://www.w3.org/2000/svg">
<path d="M138.649 55.6631C133.948 55.6631 130.136 59.466 130.136 64.1572C130.136 68.8485 133.948 72.6514 138.649 72.6514H60.8115C56.1096 72.6514 52.2979 76.4552 52.2979 81.1465C52.298 85.8377 56.1097 89.6406 60.8115 89.6406H34.0547C29.3529 89.6406 25.5411 93.4436 25.541 98.1348C25.541 102.826 29.3528 106.629 34.0547 106.629H57.1631C61.8648 106.629 65.6758 110.433 65.6758 115.124C65.6756 119.815 61.8647 123.618 57.1631 123.618H49.8652C45.1635 123.618 41.3517 127.421 41.3516 132.112C41.3516 136.804 45.1634 140.606 49.8652 140.606H113.108C113.735 140.606 114.345 140.539 114.933 140.411C115.52 140.539 116.131 140.606 116.757 140.606H227.433C232.135 140.606 235.946 136.804 235.946 132.112C235.946 127.421 232.134 123.618 227.433 123.618H274.865C279.567 123.618 283.379 119.815 283.379 115.124C283.379 110.433 279.567 106.629 274.865 106.629H226.217C221.515 106.629 217.703 102.826 217.703 98.1348C217.703 93.4436 221.515 89.6406 226.217 89.6406H256.622C261.324 89.6406 265.136 85.8377 265.136 81.1465C265.136 76.4552 261.324 72.6514 256.622 72.6514H207.974C212.675 72.6513 216.487 68.8485 216.487 64.1572C216.487 59.4661 212.675 55.6632 207.974 55.6631H138.649ZM29.1895 123.618C24.4878 123.618 20.6759 127.421 20.6758 132.112C20.6758 136.804 24.4877 140.606 29.1895 140.606C33.8913 140.606 37.7031 136.804 37.7031 132.112C37.703 127.421 33.8913 123.618 29.1895 123.618Z" fill="#FFF5E5"/>
<rect x="103.5" y="75.5" width="97" height="71" rx="7.5" fill="white" stroke="#FFA000" stroke-width="3"/>
<path d="M114 135C114 132.239 116.239 130 119 130H199V140H119C116.239 140 114 137.761 114 135Z" fill="#FFE4B7"/>
<path d="M200.5 90.5H148.5M143.5 90.5H133M122.5 90.5H104" stroke="#FFA000" stroke-width="3" stroke-linecap="round" stroke-linejoin="round"/>
<path d="M115 135L133.5 109L160 125L189 97.5" stroke="#FFA000" stroke-width="3" stroke-linecap="round" stroke-linejoin="round"/>
</svg>
