<svg width="12" height="13" viewBox="0 0 12 13" fill="none" xmlns="http://www.w3.org/2000/svg">
<path d="M4.9389 1.24902C5.13769 1.24907 5.32858 1.32823 5.46918 1.46875L10.7192 6.71875C10.8597 6.85935 10.9389 7.05022 10.9389 7.24902C10.9389 7.4479 10.8598 7.63865 10.7192 7.7793L7.27972 11.2188C7.13908 11.3594 6.94832 11.4385 6.74945 11.4385C6.55065 11.4384 6.35978 11.3593 6.21918 11.2188L0.969177 5.96875C0.828657 5.82815 0.749493 5.63727 0.749451 5.43848V1.99902C0.749504 1.80018 0.828573 1.60935 0.969177 1.46875C1.10978 1.32815 1.30061 1.24908 1.49945 1.24902H4.9389ZM1.49945 5.43848L6.74945 10.6885L10.1889 7.24902L4.9389 1.99902H1.49945V5.43848ZM3.37445 2.74902C3.67282 2.74902 3.95937 2.86812 4.17035 3.0791C4.3811 3.29 4.4994 3.57586 4.49945 3.87402C4.49945 4.17239 4.38133 4.45894 4.17035 4.66992C3.95937 4.8809 3.67282 4.99902 3.37445 4.99902C3.07629 4.99897 2.79043 4.88067 2.57953 4.66992C2.36855 4.45894 2.24945 4.17239 2.24945 3.87402C2.2495 3.57573 2.3686 3.29003 2.57953 3.0791C2.79046 2.86817 3.07616 2.74908 3.37445 2.74902ZM3.37445 3.49902C3.27507 3.49908 3.18008 3.5391 3.1098 3.60938C3.03952 3.67965 2.9995 3.77464 2.99945 3.87402C2.99945 3.97348 3.03948 4.06932 3.1098 4.13965C3.18005 4.20975 3.2752 4.24897 3.37445 4.24902C3.47391 4.24902 3.56975 4.20997 3.64008 4.13965C3.7104 4.06932 3.74945 3.97348 3.74945 3.87402C3.7494 3.77478 3.71018 3.67963 3.64008 3.60938C3.56975 3.53905 3.47391 3.49902 3.37445 3.49902Z" fill="#212529"/>
</svg>
